<?xml version="1.0" standalone="no"?>
<!DOCTYPE svg PUBLIC "-//W3C//DTD SVG 20010904//EN"
 "http://www.w3.org/TR/2001/REC-SVG-20010904/DTD/svg10.dtd">
<svg version="1.0" xmlns="http://www.w3.org/2000/svg"
 width="108.000000pt" height="108.000000pt" viewBox="0 0 108.000000 108.000000"
 preserveAspectRatio="xMidYMid meet">
<metadata>
Created by potrace 1.11, written by Peter Selinger 2001-2013
</metadata>
<g transform="translate(0.000000,108.000000) scale(0.100000,-0.100000)"
fill="#000000" stroke="none">
<path d="M100 1063 c-14 -9 -30 -23 -35 -31 -13 -16 -48 -5 -38 12 4 6 -1 5
-10 -3 -9 -7 -17 -23 -17 -36 0 -19 9 -23 72 -36 l73 -14 -70 -6 c-38 -3 36
-5 165 -5 134 0 171 2 87 3 -115 3 -152 7 -164 18 -8 8 -21 15 -29 15 -21 0
-17 21 6 27 21 6 23 14 14 51 -8 26 -21 28 -54 5z"/>
<path d="M613 1058 c-4 -7 -13 -22 -18 -33 -10 -19 -23 -20 -225 -25 l-215 -6
203 -2 c195 -2 202 -3 202 -22 0 -13 7 -20 19 -20 20 0 56 -29 47 -37 -3 -3
-12 2 -21 11 -21 21 -71 21 -83 0 -8 -14 -47 -17 -268 -24 l-259 -8 259 3
c242 3 259 2 277 -16 22 -22 20 -23 -15 -9 -17 6 -26 6 -26 0 0 -6 -40 -11
-92 -12 l-93 -2 85 -5 c70 -5 85 -9 88 -23 3 -17 -9 -18 -139 -18 -78 0 -140
-2 -138 -4 2 -2 84 -6 182 -7 98 -2 180 -6 183 -10 6 -11 -22 -29 -42 -28 -46
5 -157 -3 -137 -9 34 -11 13 -33 -28 -30 -41 4 -48 -22 -9 -33 45 -11 2 -17
-175 -24 -93 -3 -172 -9 -175 -12 -3 -3 77 -3 178 1 159 6 182 4 182 -9 0 -8
5 -15 12 -15 6 0 8 -3 5 -6 -4 -4 -13 -1 -21 5 -10 8 -16 9 -21 1 -4 -6 -58
-11 -133 -12 l-127 -2 130 -6 c72 -3 122 -8 112 -12 -10 -5 -15 -12 -12 -18 4
-6 -49 -11 -152 -12 l-158 -2 143 -3 c125 -3 143 -6 138 -19 -3 -9 -6 -18 -6
-20 0 -2 -62 -5 -137 -6 l-138 -2 128 -3 c112 -3 145 -10 119 -27 -4 -2 -61
-6 -125 -7 -64 -1 -117 -6 -117 -10 0 -4 47 -4 104 -2 107 6 156 0 156 -18 0
-6 -6 -6 -19 0 -14 8 -22 7 -31 -4 -10 -11 -36 -15 -113 -15 -55 0 -98 -2 -96
-4 3 -3 55 -6 117 -7 62 -1 115 -6 118 -11 4 -6 -5 -8 -23 -4 -23 5 -32 3 -36
-8 -5 -13 -25 -16 -94 -18 l-88 -2 85 -6 c47 -3 77 -7 68 -8 -9 -1 -21 -8 -25
-16 -5 -10 -29 -16 -68 -19 l-60 -3 67 -2 c56 -2 66 -5 62 -17 -4 -9 -11 -15
-18 -14 -6 1 -18 -1 -26 -4 -8 -3 -31 -8 -50 -10 -26 -3 -22 -4 17 -5 28 -1
55 -7 59 -14 4 -6 3 -8 -4 -4 -6 3 -13 2 -17 -4 -3 -5 -25 -11 -48 -12 l-42
-1 36 -4 c30 -3 36 -7 32 -23 -3 -10 -11 -16 -18 -13 -8 2 -22 0 -32 -6 -17
-10 -17 -10 0 -11 21 0 22 -14 1 -34 -15 -16 -15 -17 8 -20 6 0 13 -7 16 -15
3 -10 -1 -12 -17 -8 -14 3 -21 0 -21 -9 0 -8 6 -14 13 -14 8 0 8 -3 -2 -9 -11
-7 -10 -10 5 -14 18 -4 18 -5 1 -6 -13 -1 -17 -8 -15 -23 l3 -23 538 -3 537
-2 0 374 c0 348 -1 375 -17 379 -17 4 -17 5 0 6 10 1 17 9 17 22 0 14 -5 19
-13 16 -8 -3 -20 -1 -28 4 -10 6 -6 9 16 9 23 0 27 3 15 10 -10 6 -11 10 -2
10 20 0 16 99 -5 107 -15 6 -15 7 3 14 15 6 13 8 -11 9 -16 0 -55 9 -85 20
l-55 19 85 3 c81 4 80 4 -26 6 -88 2 -121 6 -159 23 -30 13 -60 19 -85 16 -21
-2 -48 2 -61 9 -30 17 -46 17 -56 2z m52 -38 c11 -13 14 -20 6 -20 -18 0 -51
19 -51 30 0 17 26 11 45 -10z m-25 -45 c8 -9 8 -15 2 -15 -18 0 -42 12 -42 21
0 14 26 10 40 -6z m-53 -81 c-3 -3 -12 -4 -19 -1 -8 3 -5 6 6 6 11 1 17 -2 13
-5z m3 -58 c0 -8 -4 -18 -10 -21 -5 -3 -10 1 -10 9 0 9 -4 16 -10 16 -5 0 -10
-4 -10 -10 0 -16 -37 -12 -44 5 -4 12 4 15 39 15 33 0 45 -4 45 -14z m88 -123
c-11 -19 -18 -36 -15 -40 3 -3 15 10 26 28 12 19 21 30 21 24 0 -5 4 -4 9 3 5
8 17 12 27 10 16 -4 7 -16 -46 -66 -35 -34 -70 -62 -76 -62 -13 0 -30 -38 -25
-55 1 -5 0 -7 -4 -3 -11 10 -28 -10 -75 -88 -24 -38 -45 -71 -49 -74 -12 -10
-106 -173 -104 -181 1 -3 -8 -17 -20 -32 -22 -26 -23 -26 -55 -11 l-32 17 22
36 c12 20 25 43 28 51 4 8 15 30 24 48 27 51 5 37 -49 -33 -54 -69 -65 -76
-65 -44 0 13 -5 18 -12 14 -7 -3 -3 2 9 11 13 9 23 25 23 35 0 11 5 19 10 19
6 0 10 8 10 17 0 9 -3 13 -7 10 -3 -4 -13 -1 -21 6 -13 9 -14 9 -8 0 5 -9 -1
-13 -19 -13 -50 0 -21 25 30 26 35 1 50 6 57 19 7 12 7 16 0 11 -6 -3 -13 -2
-16 3 -3 5 8 11 25 15 l30 6 -28 25 -28 24 43 1 c26 0 41 4 37 10 -3 6 -1 10
6 10 7 0 10 3 6 6 -6 6 1 17 35 54 11 12 13 22 7 26 -6 3 -13 3 -16 0 -8 -7
-43 12 -43 24 0 6 23 10 50 10 37 0 50 4 50 14 0 8 7 21 15 30 9 8 15 18 15
21 -2 14 19 39 26 32 5 -5 3 -12 -4 -16 -7 -4 -14 -18 -15 -29 -1 -12 -7 -22
-15 -22 -7 0 -11 -4 -7 -9 3 -5 1 -12 -5 -16 -6 -4 -8 -11 -5 -16 4 -5 -2 -9
-11 -9 -10 0 -15 -3 -12 -6 4 -3 -9 -33 -28 -66 -25 -43 -32 -64 -24 -72 7 -7
17 -3 34 15 30 32 166 234 166 247 0 5 9 17 20 27 11 10 17 21 15 25 -10 16
20 17 51 2 l32 -15 -20 -34z m-138 27 c0 -3 -4 -11 -8 -18 -9 -14 -42 -6 -42
10 0 6 -13 8 -29 6 -17 -2 -28 -1 -25 3 5 9 104 7 104 -1z m-86 -48 c-11 -11
-18 -10 -41 1 l-27 15 41 -2 c33 0 38 -3 27 -14z m-29 -42 c3 -5 -1 -10 -9
-10 -8 0 -18 5 -21 10 -3 6 1 10 9 10 8 0 18 -4 21 -10z m-65 -100 c8 -5 12
-11 10 -14 -3 -2 -14 2 -24 10 -22 15 -10 19 14 4z m-176 -251 c-8 -14 -24
-10 -24 6 0 9 6 12 15 9 8 -4 12 -10 9 -15z m-69 -89 c3 -6 -1 -7 -9 -4 -18 7
-21 14 -7 14 6 0 13 -4 16 -10z m72 4 c-3 -3 -12 -4 -19 -1 -8 3 -5 6 6 6 11
1 17 -2 13 -5z m-15 -49 c0 -5 -5 -10 -12 -11 -7 -2 -6 -1 1 3 8 4 7 8 -2 15
-11 8 -11 9 -1 6 8 -2 14 -8 14 -13z m-102 -55 c0 -5 -5 -10 -11 -10 -5 0 -7
5 -4 10 3 6 8 10 11 10 2 0 4 -4 4 -10z m35 -40 c-3 -5 -1 -10 6 -10 7 0 10
-2 7 -5 -3 -3 -13 -2 -22 1 -14 5 -15 9 -4 15 17 11 20 11 13 -1z m-38 -16
c-3 -3 -12 -4 -19 -1 -8 3 -5 6 6 6 11 1 17 -2 13 -5z"/>
<path d="M83 843 c9 -2 25 -2 35 0 9 3 1 5 -18 5 -19 0 -27 -2 -17 -5z"/>
<path d="M118 803 c12 -2 30 -2 40 0 9 3 -1 5 -23 4 -22 0 -30 -2 -17 -4z"/>
<path d="M87 753 c51 -2 135 -2 185 0 51 1 10 3 -92 3 -102 0 -143 -2 -93 -3z"/>
<path d="M285 710 c3 -5 8 -10 11 -10 2 0 4 5 4 10 0 6 -5 10 -11 10 -5 0 -7
-4 -4 -10z"/>
<path d="M63 703 c37 -2 97 -2 135 0 37 2 6 3 -68 3 -74 0 -105 -1 -67 -3z"/>
<path d="M13 603 c9 -2 23 -2 30 0 6 3 -1 5 -18 5 -17 0 -22 -2 -12 -5z"/>
</g>
</svg>
