<?xml version="1.0" standalone="no"?>
<!DOCTYPE svg PUBLIC "-//W3C//DTD SVG 20010904//EN"
 "http://www.w3.org/TR/2001/REC-SVG-20010904/DTD/svg10.dtd">
<svg version="1.0" xmlns="http://www.w3.org/2000/svg"
 width="128.000000pt" height="128.000000pt" viewBox="0 0 128.000000 128.000000"
 preserveAspectRatio="xMidYMid meet">
<metadata>
Created by potrace 1.11, written by Peter Selinger 2001-2013
</metadata>
<g transform="translate(0.000000,128.000000) scale(0.100000,-0.100000)"
fill="#000000" stroke="none">
<path d="M514 1225 c-35 -53 26 -101 79 -61 27 21 21 39 -8 20 -13 -9 -30 -14
-36 -12 -7 2 2 13 20 25 30 19 31 21 16 37 -24 23 -52 20 -71 -9z m37 -16
c-13 -11 -26 -17 -29 -14 -8 8 20 35 37 35 12 -1 11 -5 -8 -21z"/>
<path d="M464 1176 c3 -13 9 -32 13 -42 6 -16 3 -15 -24 4 -47 33 -61 26 -18
-8 43 -34 69 -39 61 -12 -2 9 -7 32 -11 50 -4 17 -11 32 -17 32 -6 0 -8 -10
-4 -24z"/>
<path d="M686 1174 c-24 -23 -19 -51 10 -71 24 -15 29 -15 53 -2 14 8 27 23
29 33 4 18 2 17 -23 -2 -15 -12 -32 -22 -36 -22 -18 0 -8 16 22 34 24 14 28
20 18 32 -15 19 -54 18 -73 -2z m36 -20 c-24 -17 -39 -14 -27 5 3 6 16 11 28
11 l21 0 -22 -16z"/>
<path d="M595 1129 c4 -10 19 -32 36 -50 27 -29 32 -31 55 -20 14 6 22 16 19
22 -5 7 -12 6 -22 -3 -12 -10 -18 -8 -34 12 -16 22 -16 26 -4 36 22 17 19 20
-20 20 -29 0 -34 -3 -30 -17z"/>
<path d="M342 1114 c-30 -21 -29 -59 3 -80 23 -15 27 -15 50 0 32 21 33 59 3
80 -12 9 -25 16 -28 16 -3 0 -16 -7 -28 -16z m58 -37 c0 -23 -22 -37 -42 -26
-21 11 -23 30 -6 47 13 13 48 -2 48 -21z"/>
<path d="M813 1090 c-10 -11 -21 -20 -26 -20 -4 0 -18 -7 -32 -16 l-24 -15 21
-35 c11 -19 24 -37 30 -40 18 -12 21 6 4 31 -18 27 -16 55 3 55 6 0 17 -13 26
-30 9 -16 20 -30 25 -30 15 0 12 26 -5 40 -19 16 -19 50 0 50 8 0 21 -13 30
-30 15 -29 35 -40 35 -20 0 17 -31 60 -51 71 -14 7 -23 5 -36 -11z"/>
<path d="M534 1076 c-10 -8 -16 -18 -11 -22 4 -4 13 -2 19 4 23 23 29 12 9
-14 -11 -14 -18 -31 -15 -38 7 -18 -30 -48 -50 -40 -23 9 -20 45 4 51 11 3 20
9 20 14 0 13 -34 11 -48 -3 -17 -17 -15 -63 2 -78 22 -17 60 -8 71 18 6 13 18
22 33 22 12 0 25 7 28 15 4 8 12 15 20 15 19 0 18 7 -7 41 -22 32 -45 36 -75
15z m62 -42 c-3 -9 -6 -18 -6 -20 0 -2 -7 -4 -15 -4 -18 0 -19 12 -3 28 17 17
31 15 24 -4z"/>
<path d="M253 1050 c-10 -11 -25 -20 -35 -20 -10 0 -18 -4 -18 -10 0 -5 -7
-10 -15 -10 -8 0 -15 -3 -15 -8 0 -13 50 -82 60 -82 15 0 12 9 -9 37 -19 23
-19 53 -1 53 5 0 18 -14 30 -30 25 -36 49 -30 26 6 -9 13 -16 30 -16 39 0 26
29 17 45 -15 9 -16 19 -30 24 -30 4 0 25 -25 45 -55 20 -31 41 -53 46 -50 12
7 -22 64 -71 117 -21 24 -39 46 -39 50 0 4 -9 12 -20 18 -16 8 -23 7 -37 -10z"/>
<path d="M385 1010 c-3 -5 -1 -10 4 -10 6 0 11 5 11 10 0 6 -2 10 -4 10 -3 0
-8 -4 -11 -10z"/>
<path d="M650 981 c-22 -41 1 -81 45 -81 23 0 55 33 55 57 0 40 -81 59 -100
24z m65 -26 c0 -13 -8 -21 -22 -23 -19 -3 -23 1 -23 23 0 22 4 26 23 23 14 -2
22 -10 22 -23z"/>
<path d="M400 982 c0 -16 52 -82 60 -77 11 7 -37 85 -51 85 -5 0 -9 -3 -9 -8z"/>
<path d="M102 954 c-50 -35 -9 -102 50 -82 16 6 32 17 35 25 9 24 -5 26 -28 4
-13 -12 -30 -21 -38 -21 -10 0 -3 11 19 30 34 29 34 31 16 45 -25 19 -26 19
-54 -1z m38 -14 c0 -5 -9 -14 -20 -20 -22 -12 -27 -1 -8 18 14 14 28 16 28 2z"/>
<path d="M579 934 c-20 -24 -19 -40 2 -63 23 -24 46 -26 73 -6 16 12 17 18 8
27 -10 10 -15 10 -21 -1 -11 -18 -45 -10 -49 12 -3 12 4 20 17 24 12 3 21 9
21 14 0 15 -37 10 -51 -7z"/>
<path d="M305 919 c-4 -6 -16 -14 -26 -17 -17 -7 -16 -12 18 -62 20 -30 39
-57 42 -60 3 -3 6 -17 6 -32 1 -23 -2 -25 -19 -16 -11 6 -29 12 -41 13 -11 1
-27 3 -35 4 -11 1 -7 9 13 26 l28 25 -27 40 c-32 48 -54 43 -24 -6 20 -31 20
-35 5 -40 -12 -5 -24 2 -40 22 -31 39 -40 26 -11 -16 24 -35 24 -69 -1 -83 -7
-5 -11 -13 -8 -18 4 -5 11 -6 17 -3 7 4 8 2 4 -4 -8 -14 43 -94 55 -86 5 3 -3
25 -17 50 -45 76 -14 71 37 -7 9 -13 20 -21 24 -17 4 4 0 19 -9 32 -9 14 -16
32 -16 41 0 26 29 16 45 -15 9 -17 20 -28 25 -25 7 4 6 13 0 26 -13 23 -13 23
41 3 24 -8 71 -17 104 -19 l60 -4 -70 17 -70 17 25 18 c18 12 21 20 13 28 -8
8 -17 5 -32 -10 -12 -12 -27 -21 -33 -21 -7 0 2 13 21 28 31 27 32 29 16 45
-9 9 -20 17 -25 17 -5 0 -7 7 -3 16 5 14 3 14 -15 3 -11 -7 -19 -16 -16 -20 2
-4 0 -10 -5 -13 -19 -12 -20 25 -1 44 25 25 25 41 0 68 -22 24 -45 28 -55 11z
m45 -39 c0 -10 -7 -23 -15 -30 -12 -10 -17 -7 -27 15 -10 21 -9 28 2 35 19 12
40 1 40 -20z m50 -105 c0 -2 -10 -10 -22 -16 -21 -11 -22 -11 -9 4 13 16 31
23 31 12z"/>
<path d="M31 903 c-5 -10 -12 -17 -15 -15 -16 6 -14 -1 10 -38 15 -22 31 -40
36 -40 5 0 8 3 6 8 -2 4 -10 19 -17 34 -13 25 -12 30 4 48 16 17 16 20 2 20
-9 0 -20 -8 -26 -17z"/>
<path d="M444 845 c-21 -21 -24 -28 -13 -41 8 -10 21 -13 42 -8 20 4 27 3 23
-5 -4 -6 -14 -11 -22 -11 -8 0 -14 -7 -14 -15 0 -20 20 -18 50 5 34 26 17 56
-30 52 -19 -1 -29 2 -25 8 3 5 15 10 26 10 12 0 19 5 17 12 -8 22 -27 20 -54
-7z"/>
<path d="M117 843 c-3 -5 -2 -15 3 -23 6 -10 2 -18 -11 -28 -27 -18 -24 -57 6
-80 14 -11 25 -23 25 -26 0 -16 74 -115 81 -110 10 6 8 10 -33 72 -19 28 -27
49 -23 62 4 11 10 18 15 15 24 -15 15 18 -19 69 -21 32 -41 54 -44 49z m42
-81 c11 -20 -3 -42 -25 -42 -15 0 -28 35 -19 50 10 16 33 12 44 -8z"/>
<path d="M550 826 c0 -9 7 -16 16 -16 9 0 14 5 12 12 -6 18 -28 21 -28 4z"/>
<path d="M562 641 c2 -22 -4 -35 -24 -51 l-27 -21 19 -32 c27 -43 25 -64 -7
-91 -27 -23 -27 -23 25 -28 27 -2 32 -17 32 -105 l0 -82 -162 55 c-89 29 -163
52 -165 50 -2 -1 44 -20 101 -42 73 -27 100 -41 90 -47 -8 -5 -11 -14 -7 -20
4 -7 -1 -5 -12 3 -10 8 -26 14 -35 12 -10 -2 -57 11 -105 28 -49 16 -91 30
-94 30 -32 -2 391 -160 428 -160 14 0 37 10 51 23 14 12 57 46 97 76 69 52
148 133 171 177 10 18 8 24 -11 40 -12 10 -16 12 -9 4 6 -8 12 -17 12 -21 0
-3 -33 -35 -72 -70 -40 -35 -66 -54 -58 -43 8 11 -1 3 -20 -18 -35 -39 -50
-47 -50 -27 0 5 4 8 9 4 5 -3 12 -1 15 4 4 5 2 12 -3 15 -12 8 -34 -20 -27
-33 8 -12 -51 -67 -66 -63 -5 1 -8 -1 -5 -5 2 -5 -4 -16 -15 -26 -10 -9 -18
-14 -19 -10 -7 82 -12 109 -20 111 -6 3 -5 9 1 17 8 10 8 35 1 88 -6 41 -11
123 -12 181 -1 86 -4 106 -16 106 -10 0 -14 -9 -11 -29z"/>
<path d="M453 460 c0 -47 2 -66 4 -42 2 23 2 61 0 85 -2 23 -4 4 -4 -43z"/>
<path d="M253 516 c-6 -8 -9 -17 -6 -20 7 -7 33 13 33 25 0 13 -13 10 -27 -5z"/>
<path d="M891 494 c0 -11 3 -14 6 -6 3 7 2 16 -1 19 -3 4 -6 -2 -5 -13z"/>
<path d="M889 449 c-1 -8 -2 -21 -3 -29 0 -8 -10 -15 -21 -15 -11 0 -20 -7
-20 -15 0 -8 -8 -15 -17 -15 -9 0 -20 -4 -25 -9 -4 -5 -3 -6 5 -2 7 4 12 2 12
-5 0 -8 7 -5 20 6 11 10 17 22 13 28 -4 6 0 8 9 4 9 -3 24 4 36 18 18 20 19
25 6 36 -11 9 -14 8 -15 -2z"/>
<path d="M367 382 c-9 -2 -15 -8 -12 -13 8 -12 45 -12 45 0 0 13 -12 18 -33
13z"/>
</g>
</svg>
